<?xml version="1.0" encoding="iso-8859-1"?>
<!-- Generator: Adobe Illustrator 16.0.0, SVG Export Plug-In . SVG Version: 6.00 Build 0)  -->
<!DOCTYPE svg PUBLIC "-//W3C//DTD SVG 1.1//EN" "http://www.w3.org/Graphics/SVG/1.1/DTD/svg11.dtd">
<svg version="1.1" id="Capa_1" xmlns="http://www.w3.org/2000/svg" xmlns:xlink="http://www.w3.org/1999/xlink" x="0px" y="0px"
	 width="48.863px" height="48.863px" viewBox="0 0 48.863 48.863" style="enable-background:new 0 0 48.863 48.863;"
	 xml:space="preserve">
<g>
	<path d="M12.97,15.904h6.777v32.959h6.047v-6.038l3.266-2.73v-1.629c-1.966-0.329-3.418-1.414-3.418-2.716
		c0-1.303,1.452-2.389,3.418-2.717v-2.331c-1.966-0.329-3.418-1.414-3.418-2.716c0-1.303,1.452-2.389,3.418-2.717v-2.31
		c-1.966-0.328-3.418-1.413-3.418-2.715c0-1.304,1.452-2.389,3.418-2.717v-1.625h6.834V0H12.97V15.904z M28.637,2.419v5.563h-9.192
		V2.419H28.637z"/>
</g>
<g>
</g>
<g>
</g>
<g>
</g>
<g>
</g>
<g>
</g>
<g>
</g>
<g>
</g>
<g>
</g>
<g>
</g>
<g>
</g>
<g>
</g>
<g>
</g>
<g>
</g>
<g>
</g>
<g>
</g>
</svg>
